<svg xmlns="http://www.w3.org/2000/svg" width="1.25em" height="1.25em" viewBox="0 0 18 16" class="svg-icon s-mr-05" id="" fill="currentColor" title=""><path fill-rule="evenodd" clip-rule="evenodd" d="M3.55955 0.900024C2.78759 0.900024 2.12139 1.16177 1.6478 1.62918C1.17402 2.0968 0.900024 2.76335 0.900024 3.55955V9.25067C0.900024 9.98451 1.15449 10.65 1.61711 11.1326C2.08035 11.6159 2.74696 11.9102 3.55955 11.9102H4.1729C4.45489 11.9102 4.75357 12.1818 4.82371 12.5428L5.29563 15.0086C5.34669 15.2639 5.49383 15.4546 5.71805 15.4546C5.85418 15.4546 5.99061 15.3827 6.11356 15.2598L8.93825 12.3997C9.06811 12.2699 9.26527 12.1466 9.48052 12.0557C9.69603 11.9646 9.91983 11.9102 10.0999 11.9102H14.4405C16.041 11.9102 17.1 10.5971 17.1 9.25067V3.55955C17.1 2.00544 15.9574 0.900024 14.4405 0.900024H3.55955ZM1.92568 3.55955C1.92568 3.04382 2.08535 2.63782 2.36294 2.36091C2.64057 2.08396 3.04664 1.92568 3.55955 1.92568H14.4405C14.9267 1.92568 15.3339 2.0953 15.6193 2.38072C15.9048 2.66615 16.0744 3.07335 16.0744 3.55955V9.25067C16.0744 10.0595 15.4619 10.8845 14.4405 10.8845H10.0999C9.45408 10.8845 8.66171 11.2136 8.20639 11.6751L6.11088 13.7983L5.83391 12.3455C5.6726 11.5141 4.96964 10.8845 4.1729 10.8845H3.55955C3.05667 10.8845 2.64274 10.7212 2.35843 10.4205C2.08317 10.1288 1.92568 9.7179 1.92568 9.24477V3.55955Z"></path></svg>