<svg xmlns="http://www.w3.org/2000/svg" xmlns:xlink="http://www.w3.org/1999/xlink" width="1500" zoomAndPan="magnify" viewBox="0 0 1125 1124.99995" height="1500" preserveAspectRatio="xMidYMid meet" version="1.0"><defs><g/></defs><path fill="rgb(0%, 0%, 0%)" d="M 950.371094 170.230469 L 163.035156 170.230469 L 163.035156 954.730469 L 961.785156 954.730469 L 961.785156 170.230469 L 950.371094 170.230469 M 950.371094 943.3125 L 174.578125 943.3125 L 174.578125 181.773438 L 950.371094 181.773438 L 950.371094 943.3125 " fill-opacity="1" fill-rule="nonzero"/><g fill="rgb(0%, 0%, 0%)" fill-opacity="1"><g transform="translate(226.333745, 848.098395)"><g><path d="M 95.421875 -148.738281 L 148.464844 -148.738281 L 148.464844 -185.921875 L 1.367188 -185.921875 L 1.367188 -148.738281 L 54.410156 -148.738281 L 54.410156 0 L 95.421875 0 Z M 95.421875 -148.738281 "/></g></g></g><g fill="rgb(0%, 0%, 0%)" fill-opacity="1"><g transform="translate(376.16355, 848.098395)"><g><path d="M 124.128906 -37.183594 L 57.417969 -37.183594 L 57.417969 -74.640625 L 121.394531 -74.640625 L 121.394531 -111.824219 L 57.417969 -111.824219 L 57.417969 -148.738281 L 124.128906 -148.738281 L 124.128906 -185.921875 L 16.40625 -185.921875 L 16.40625 0 L 124.128906 0 Z M 124.128906 -37.183594 "/></g></g></g><g fill="rgb(0%, 0%, 0%)" fill-opacity="1"><g transform="translate(516.697337, 848.098395)"><g><path d="M 150.648438 -63.160156 C 142.996094 -46.753906 124.402344 -35.542969 105.265625 -35.542969 C 75.1875 -35.542969 51.128906 -61.246094 51.128906 -92.960938 C 51.128906 -124.402344 75.1875 -150.375 105.265625 -150.375 C 124.128906 -150.375 142.722656 -139.988281 150.375 -123.308594 L 196.035156 -123.308594 C 183.460938 -161.3125 147.644531 -188.65625 105.265625 -188.65625 C 52.496094 -188.65625 9.570312 -145.730469 9.570312 -92.960938 C 9.570312 -40.191406 52.496094 2.734375 105.265625 2.734375 C 147.644531 2.734375 183.734375 -24.878906 196.308594 -63.160156 Z M 150.648438 -63.160156 "/></g></g></g><g fill="rgb(0%, 0%, 0%)" fill-opacity="1"><g transform="translate(719.842492, 848.098395)"><g><path d="M 118.660156 -185.921875 L 118.660156 -111.824219 L 57.417969 -111.824219 L 57.417969 -185.921875 L 16.40625 -185.921875 L 16.40625 0 L 57.417969 0 L 57.417969 -74.640625 L 118.660156 -74.640625 L 118.660156 0 L 162.40625 0 L 162.40625 -185.921875 Z M 118.660156 -185.921875 "/></g></g></g><g fill="rgb(0%, 0%, 0%)" fill-opacity="1"><g transform="translate(451.743737, 520.414858)"><g><path d="M 138.074219 -62.886719 C 138.074219 -79.289062 131.511719 -93.507812 118.933594 -105.8125 C 106.632812 -117.566406 91.867188 -123.582031 75.1875 -123.582031 C 57.691406 -123.582031 42.925781 -117.292969 30.621094 -104.992188 C 18.320312 -92.6875 12.304688 -77.921875 12.304688 -60.699219 C 12.304688 -43.199219 18.320312 -28.433594 30.621094 -16.40625 C 36.363281 -10.664062 42.925781 -6.289062 50.582031 -3.007812 C 58.238281 0.273438 67.257812 1.914062 77.921875 1.914062 C 88.585938 1.914062 98.976562 -1.367188 109.363281 -7.929688 C 119.753906 -14.492188 127.410156 -23.785156 132.605469 -35.269531 L 110.730469 -35.269531 C 106.359375 -29.527344 101.164062 -25.152344 94.875 -21.871094 C 88.585938 -18.59375 82.023438 -17.226562 75.1875 -17.226562 C 64.796875 -17.226562 55.503906 -20.507812 47.300781 -27.339844 C 39.097656 -33.902344 33.902344 -42.378906 32.261719 -52.769531 L 138.074219 -52.769531 Z M 117.839844 -69.171875 L 32.535156 -69.171875 C 33.628906 -74.09375 35.542969 -78.742188 38.277344 -83.117188 C 47.027344 -97.335938 59.332031 -104.445312 75.1875 -104.445312 C 85.304688 -104.445312 94.328125 -101.164062 102.257812 -94.601562 C 110.457031 -87.765625 115.378906 -79.289062 117.839844 -69.171875 Z M 117.839844 -69.171875 "/></g></g></g><g fill="rgb(0%, 0%, 0%)" fill-opacity="1"><g transform="translate(600.753297, 520.414858)"><g><path d="M 116.199219 -60.152344 C 116.199219 -48.394531 112.097656 -38.003906 103.898438 -29.527344 C 95.695312 -20.78125 85.578125 -16.40625 73.820312 -16.40625 C 61.792969 -16.40625 51.675781 -20.78125 43.472656 -29.527344 C 35.269531 -38.003906 31.441406 -48.394531 31.441406 -60.152344 C 31.441406 -71.632812 35.269531 -82.023438 43.472656 -90.773438 C 51.675781 -99.523438 61.792969 -103.898438 73.820312 -103.898438 C 85.578125 -103.898438 95.695312 -99.523438 103.898438 -90.773438 C 112.097656 -82.023438 116.199219 -71.632812 116.199219 -60.152344 Z M 135.339844 0 L 135.339844 -205.058594 L 116.199219 -205.058594 L 116.199219 -99.523438 C 115.105469 -101.164062 113.738281 -102.53125 112.644531 -103.898438 C 101.164062 -116.472656 87.21875 -123.035156 70.8125 -123.035156 C 54.136719 -123.035156 40.191406 -116.472656 28.707031 -103.898438 C 17.773438 -91.320312 12.304688 -76.828125 12.304688 -60.152344 C 12.304688 -43.199219 17.773438 -28.707031 28.707031 -16.40625 C 40.191406 -3.554688 54.136719 2.734375 70.8125 2.734375 C 87.21875 2.734375 101.164062 -3.554688 112.644531 -16.40625 C 113.738281 -17.5 115.105469 -18.867188 116.199219 -20.507812 L 116.199219 0 Z M 135.339844 0 "/></g></g></g><g fill="rgb(0%, 0%, 0%)" fill-opacity="1"><g transform="translate(756.598116, 520.414858)"><g><path d="M 103.625 -20.507812 L 103.625 0 L 122.761719 0 L 122.761719 -120.300781 L 103.625 -120.300781 L 103.625 -69.992188 C 103.625 -53.042969 100.34375 -40.191406 94.054688 -30.621094 C 88.039062 -21.328125 77.375 -16.679688 62.613281 -16.679688 C 54.410156 -16.679688 48.394531 -19.414062 44.839844 -24.878906 C 41.285156 -30.347656 39.644531 -37.183594 39.644531 -45.113281 L 39.644531 -120.300781 L 20.507812 -120.300781 L 20.507812 -45.113281 C 20.507812 -31.167969 24.058594 -19.6875 31.714844 -10.664062 C 39.371094 -1.914062 49.761719 2.460938 63.433594 2.460938 C 81.203125 2.460938 94.601562 -5.195312 103.625 -20.507812 Z M 103.625 -20.507812 "/></g></g></g></svg>