<svg xmlns="http://www.w3.org/2000/svg" width="112.5" viewBox="0 0 112.5 45" height="45" version="1.0"><defs><clipPath id="a"><path d="M 44 4 L 112.003906 4 L 112.003906 41 L 44 41 Z M 44 4"/></clipPath></defs><g clip-path="url(#a)"><path d="M 111.023438 4.183594 L 44.273438 4.183594 L 44.273438 40.933594 L 112.523438 40.933594 L 112.523438 4.183594 L 111.023438 4.183594 M 111.023438 39.4375 L 45.789062 39.4375 L 45.789062 5.695312 L 111.023438 5.695312 L 111.023438 39.4375"/></g><g><g><g><path d="M 7.988281 -12.449219 L 12.425781 -12.449219 L 12.425781 -15.5625 L 0.113281 -15.5625 L 0.113281 -12.449219 L 4.554688 -12.449219 L 4.554688 0 L 7.988281 0 Z M 7.988281 -12.449219" transform="translate(50.248 30.914)"/></g></g></g><g><g><g><path d="M 10.390625 -3.113281 L 4.804688 -3.113281 L 4.804688 -6.246094 L 10.160156 -6.246094 L 10.160156 -9.359375 L 4.804688 -9.359375 L 4.804688 -12.449219 L 10.390625 -12.449219 L 10.390625 -15.5625 L 1.375 -15.5625 L 1.375 0 L 10.390625 0 Z M 10.390625 -3.113281" transform="translate(62.79 30.914)"/></g></g></g><g><g><g><path d="M 12.609375 -5.285156 C 11.96875 -3.914062 10.414062 -2.976562 8.8125 -2.976562 C 6.292969 -2.976562 4.28125 -5.125 4.28125 -7.78125 C 4.28125 -10.414062 6.292969 -12.585938 8.8125 -12.585938 C 10.390625 -12.585938 11.945312 -11.71875 12.585938 -10.320312 L 16.410156 -10.320312 C 15.355469 -13.503906 12.359375 -15.792969 8.8125 -15.792969 C 4.394531 -15.792969 0.800781 -12.199219 0.800781 -7.78125 C 0.800781 -3.363281 4.394531 0.230469 8.8125 0.230469 C 12.359375 0.230469 15.378906 -2.082031 16.433594 -5.285156 Z M 12.609375 -5.285156" transform="translate(74.553 30.914)"/></g></g></g><g><g><g><path d="M 9.933594 -15.5625 L 9.933594 -9.359375 L 4.804688 -9.359375 L 4.804688 -15.5625 L 1.375 -15.5625 L 1.375 0 L 4.804688 0 L 4.804688 -6.246094 L 9.933594 -6.246094 L 9.933594 0 L 13.59375 0 L 13.59375 -15.5625 Z M 9.933594 -15.5625" transform="translate(91.557 30.914)"/></g></g></g><g><g><g><path d="M 12.464844 -5.675781 C 12.464844 -7.15625 11.871094 -8.441406 10.738281 -9.550781 C 9.625 -10.613281 8.292969 -11.15625 6.789062 -11.15625 C 5.207031 -11.15625 3.875 -10.589844 2.765625 -9.476562 C 1.652344 -8.367188 1.109375 -7.035156 1.109375 -5.480469 C 1.109375 -3.898438 1.652344 -2.566406 2.765625 -1.480469 C 3.28125 -0.960938 3.875 -0.566406 4.566406 -0.273438 C 5.257812 0.0234375 6.070312 0.171875 7.035156 0.171875 C 7.996094 0.171875 8.933594 -0.125 9.875 -0.714844 C 10.8125 -1.308594 11.503906 -2.148438 11.972656 -3.183594 L 9.996094 -3.183594 C 9.601562 -2.664062 9.132812 -2.269531 8.566406 -1.976562 C 7.996094 -1.679688 7.40625 -1.554688 6.789062 -1.554688 C 5.851562 -1.554688 5.011719 -1.851562 4.269531 -2.46875 C 3.53125 -3.0625 3.0625 -3.824219 2.914062 -4.765625 L 12.464844 -4.765625 Z M 10.636719 -6.246094 L 2.9375 -6.246094 C 3.035156 -6.6875 3.207031 -7.109375 3.457031 -7.503906 C 4.246094 -8.785156 5.355469 -9.429688 6.789062 -9.429688 C 7.699219 -9.429688 8.515625 -9.132812 9.230469 -8.539062 C 9.972656 -7.921875 10.417969 -7.15625 10.636719 -6.246094 Z M 10.636719 -6.246094" transform="translate(2.093 30.463)"/></g></g></g><g><g><g><path d="M 10.488281 -5.429688 C 10.488281 -4.367188 10.121094 -3.429688 9.378906 -2.664062 C 8.640625 -1.875 7.726562 -1.480469 6.664062 -1.480469 C 5.578125 -1.480469 4.664062 -1.875 3.925781 -2.664062 C 3.183594 -3.429688 2.839844 -4.367188 2.839844 -5.429688 C 2.839844 -6.46875 3.183594 -7.40625 3.925781 -8.195312 C 4.664062 -8.984375 5.578125 -9.378906 6.664062 -9.378906 C 7.726562 -9.378906 8.640625 -8.984375 9.378906 -8.195312 C 10.121094 -7.40625 10.488281 -6.46875 10.488281 -5.429688 Z M 12.21875 0 L 12.21875 -18.511719 L 10.488281 -18.511719 L 10.488281 -8.984375 C 10.390625 -9.132812 10.269531 -9.257812 10.167969 -9.378906 C 9.132812 -10.515625 7.875 -11.105469 6.394531 -11.105469 C 4.886719 -11.105469 3.628906 -10.515625 2.589844 -9.378906 C 1.605469 -8.242188 1.109375 -6.9375 1.109375 -5.429688 C 1.109375 -3.898438 1.605469 -2.589844 2.589844 -1.480469 C 3.628906 -0.320312 4.886719 0.246094 6.394531 0.246094 C 7.875 0.246094 9.132812 -0.320312 10.167969 -1.480469 C 10.269531 -1.578125 10.390625 -1.703125 10.488281 -1.851562 L 10.488281 0 Z M 12.21875 0" transform="translate(15.545 30.463)"/></g></g></g><g><g><g><path d="M 9.355469 -1.851562 L 9.355469 0 L 11.082031 0 L 11.082031 -10.859375 L 9.355469 -10.859375 L 9.355469 -6.320312 C 9.355469 -4.789062 9.058594 -3.628906 8.492188 -2.765625 C 7.949219 -1.925781 6.984375 -1.503906 5.652344 -1.503906 C 4.910156 -1.503906 4.367188 -1.753906 4.046875 -2.246094 C 3.726562 -2.738281 3.578125 -3.355469 3.578125 -4.074219 L 3.578125 -10.859375 L 1.851562 -10.859375 L 1.851562 -4.074219 C 1.851562 -2.8125 2.171875 -1.777344 2.863281 -0.960938 C 3.554688 -0.171875 4.492188 0.222656 5.726562 0.222656 C 7.332031 0.222656 8.539062 -0.46875 9.355469 -1.851562 Z M 9.355469 -1.851562" transform="translate(29.614 30.463)"/></g></g></g></svg>